<svg width="28" height="24" viewBox="0 0 28 24" fill="none" xmlns="http://www.w3.org/2000/svg">
<path d="M19.9091 22.2727V19.9091C19.9091 18.6553 19.411 17.4529 18.5245 16.5664C17.638 15.6799 16.4356 15.1818 15.1818 15.1818H5.72727C4.47352 15.1818 3.27112 15.6799 2.38459 16.5664C1.49805 17.4529 1 18.6553 1 19.9091V22.2727" stroke="#B1B1B1" stroke-width="2" stroke-linecap="round" stroke-linejoin="round"/>
<path d="M10.4543 10.4545C13.0651 10.4545 15.1816 8.33807 15.1816 5.72727C15.1816 3.11647 13.0651 1 10.4543 1C7.84352 1 5.72705 3.11647 5.72705 5.72727C5.72705 8.33807 7.84352 10.4545 10.4543 10.4545Z" stroke="#B1B1B1" stroke-width="2" stroke-linecap="round" stroke-linejoin="round"/>
<path d="M27 22.2727V19.9091C26.9993 18.8617 26.6506 17.8442 26.0089 17.0164C25.3672 16.1886 24.4687 15.5973 23.4546 15.3354" stroke="#B1B1B1" stroke-width="2" stroke-linecap="round" stroke-linejoin="round"/>
<path d="M18.7271 1.15363C19.7439 1.41398 20.6452 2.00536 21.2888 2.83454C21.9324 3.66371 22.2818 4.68351 22.2818 5.73317C22.2818 6.78283 21.9324 7.80263 21.2888 8.6318C20.6452 9.46098 19.7439 10.0524 18.7271 10.3127" stroke="#B1B1B1" stroke-width="2" stroke-linecap="round" stroke-linejoin="round"/>
</svg>
