<svg width="26" height="26" viewBox="0 0 26 26" fill="none" xmlns="http://www.w3.org/2000/svg">
<path d="M2.81436 1.85718L21.8643 21.5916C22.2258 21.9661 22.4288 22.4739 22.4288 23.0035C22.4288 23.5331 22.2258 24.041 21.8643 24.4154C21.5028 24.7898 21.0125 25 20.5014 25C19.9902 25 19.4999 24.7898 19.1384 24.4154L14.4849 19.5117C14.1803 19.1914 14.0095 18.7599 14.0092 18.3103V18.0141C14.0092 17.7871 13.9657 17.5623 13.8812 17.3528C13.7967 17.1434 13.6729 16.9534 13.5169 16.7939L12.9161 16.2192C12.7122 16.0242 12.4641 15.8855 12.1949 15.8159C11.9256 15.7462 11.6438 15.7479 11.3753 15.8206C10.9519 15.9351 10.507 15.9329 10.0847 15.8142C9.66238 15.6956 9.27737 15.4646 8.96786 15.1441L4.55064 10.5677C1.93019 7.85308 0.965876 3.75386 2.81436 1.85718Z" stroke="#B1B1B1" stroke-width="1.5" stroke-linejoin="round"/>
<path d="M20.7142 1L16.5757 5.13847C16.2573 5.45686 16.0047 5.83487 15.8323 6.2509C15.66 6.66693 15.5712 7.11284 15.5712 7.56316V8.35925C15.5713 8.47188 15.5491 8.58342 15.506 8.68747C15.4629 8.79153 15.3997 8.88607 15.32 8.96569L14.7141 9.57159M16.4284 11.2859L17.0343 10.68C17.1139 10.6003 17.2085 10.5371 17.3125 10.494C17.4166 10.4509 17.5281 10.4287 17.6408 10.4288H18.4368C18.8872 10.4288 19.3331 10.34 19.7491 10.1677C20.1651 9.99534 20.5431 9.74273 20.8615 9.42427L25 5.2858M22.8571 3.1429L18.5713 7.42869M9.99971 19.0003L4.65747 24.3726C4.25562 24.7743 3.71066 25 3.14244 25C2.57422 25 2.02926 24.7743 1.62741 24.3726V24.3726C1.22568 23.9707 1 23.4258 1 22.8576C1 22.2893 1.22568 21.7444 1.62741 21.3425L6.1425 16.8574" stroke="#B1B1B1" stroke-width="1.5" stroke-linecap="round" stroke-linejoin="round"/>
</svg>
