<svg width="222" height="164" viewBox="0 0 222 164" fill="none" xmlns="http://www.w3.org/2000/svg">
<g filter="url(#filter0_dd_154_3194)">
<path d="M109 0C62.0508 0 24 32.4188 24 72.4286C24 89.7 31.1055 105.509 42.9258 117.94C38.7754 135.49 24.8965 151.125 24.7305 151.299C24 152.1 23.8008 153.284 24.2324 154.329C24.6641 155.373 25.5938 156 26.6562 156C48.6699 156 65.1719 144.927 73.3398 138.102C84.1973 142.385 96.25 144.857 109 144.857C155.949 144.857 194 112.438 194 72.4286C194 32.4188 155.949 0 109 0Z" fill="#FF4E78"/>
</g>
<g filter="url(#filter1_d_154_3194)">
<path d="M46.0331 41L35.7465 73.0427L33.3816 94.9295L22.3311 96.5063L24.696 74.6195L15.3951 49.7096C12.2033 51.3778 9.84732 53.673 8.32698 56.5953C6.84794 59.465 6.3007 62.7615 6.68527 66.4848C6.77548 67.3581 6.89986 68.11 7.05842 68.7404C7.26302 69.3642 7.53431 69.9552 7.8723 70.5133C7.98338 70.684 8.04366 70.8154 8.05316 70.9073C8.10395 70.9467 8.13172 70.9894 8.13647 71.0353C5.55801 71.4033 3.61562 71.144 2.30928 70.2576C1.04424 69.3187 0.293021 67.7001 0.0556322 65.4017C-0.181757 63.1034 0.340578 60.6967 1.62264 58.1816C2.95074 55.6599 4.90115 53.2826 7.47387 51.0498C9.66542 49.1978 12.0537 47.6676 14.6388 46.4592C17.2652 45.1982 19.8676 44.3837 22.4461 44.0158C22.7684 43.9698 23.1161 43.9435 23.4892 43.9369C23.9036 43.8778 24.4815 43.8187 25.2229 43.7595L33.7812 67.586L41.4748 41.6504L46.0331 41Z" fill="white"/>
<path d="M56.9741 87.0988C58.1793 86.9977 59.2146 86.401 60.08 85.3085C60.989 84.166 61.6846 82.5779 62.1667 80.544L65.5464 57.939L75.5584 57.0993L71.9804 81.0422C71.9128 81.4651 71.8671 81.863 71.8432 82.2359C71.8164 82.5626 71.8142 82.9105 71.8366 83.2795C71.8926 84.202 72.1418 84.8533 72.5842 85.2334C73.0701 85.5635 73.8229 85.6858 74.8427 85.6003C76.0478 85.4993 77.1049 84.8775 78.0138 83.735C78.9228 82.5925 79.6198 81.0274 80.1048 79.0397L83.0249 78.7948C81.7993 83.1626 80.0703 86.5295 77.8379 88.8956C75.6028 91.2155 72.9325 92.5057 69.8269 92.7661C67.8338 92.9333 66.2011 92.5139 64.9287 91.508C63.6536 90.456 62.8589 88.8769 62.5447 86.7707C61.3349 89.0974 59.9061 90.8861 58.2583 92.1369C56.6541 93.3377 54.7858 94.0275 52.6537 94.2063C50.3361 94.4007 48.4618 93.8393 47.0308 92.5222C45.6434 91.155 44.8699 89.157 44.7103 86.5279C44.6739 85.9283 44.6796 85.2556 44.7275 84.5099C44.7726 83.718 44.8613 82.8761 44.9935 81.9842L48.3732 59.3791L58.3851 58.5395L54.8071 82.4824C54.7368 82.8592 54.6883 83.211 54.6615 83.5377C54.6783 83.8144 54.6965 84.1143 54.7161 84.4371C54.7721 85.3596 54.9778 86.0609 55.333 86.5411C55.7318 86.9712 56.2789 87.1571 56.9741 87.0988Z" fill="white"/>
<path d="M114.396 83.414C114.389 82.5822 114.473 81.5415 114.647 80.2916C114.869 79.0412 115.293 77.0489 115.92 74.3148C116.548 71.673 116.949 69.7734 117.125 68.616C117.301 67.4586 117.385 66.4871 117.378 65.7016C117.368 64.5465 117.151 63.6711 116.727 63.0756C116.303 62.4801 115.672 62.1875 114.835 62.1978C113.719 62.2115 112.677 62.802 111.711 63.9692C110.791 65.0896 110.037 66.6469 109.45 68.6412L104.904 90.9477L94.8571 91.0714L99.7372 67.0972C99.8277 66.8188 99.8718 66.541 99.8693 66.2638C99.9134 65.986 99.9339 65.6853 99.9311 65.3619C99.9228 64.4378 99.7302 63.7008 99.3531 63.1509C98.9761 62.601 98.462 62.3301 97.8108 62.3381C96.6015 62.353 95.5136 62.944 94.5471 64.1112C93.5802 65.2321 92.8035 66.8129 92.2169 68.8534L87.6709 91.1598L77.6241 91.2835L84.7108 56.5382L94.7576 56.4145L94.0223 60.028C95.1731 58.6737 96.4434 57.6645 97.833 57.0005C99.2226 56.3364 100.778 55.9938 102.499 55.9726C104.545 55.9474 106.155 56.4359 107.327 57.4381C108.545 58.3936 109.348 59.8624 109.738 61.8447C111.023 59.8418 112.452 58.3454 114.024 57.3557C115.597 56.3659 117.384 55.8587 119.384 55.834C121.849 55.8037 123.762 56.4502 125.123 57.7735C126.483 59.0969 127.175 61.0292 127.198 63.5705C127.207 64.6333 127.079 65.9056 126.813 67.3877C126.593 68.8229 126.125 71.0468 125.407 74.0593C124.824 76.4233 124.443 78.0915 124.266 79.0642C124.088 80.0368 124.003 80.8465 124.008 81.4934C124.017 82.4637 124.256 83.2001 124.726 83.7027C125.195 84.159 125.895 84.3814 126.825 84.37C127.988 84.3557 128.984 83.9506 129.815 83.1548C130.645 82.359 131.584 80.707 132.631 78.1987L135.562 78.1626C134.111 82.4781 132.326 85.7117 130.205 87.8635C128.131 90.0147 125.629 91.1084 122.699 91.1445C120.094 91.1765 118.065 90.5084 116.61 89.1399C115.156 87.7253 114.418 85.8166 114.396 83.414Z" fill="white"/>
<path d="M165.359 85.9218C165.402 85.0911 165.548 84.0595 165.798 82.8268C166.095 81.5974 166.638 79.6446 167.429 76.9684C168.214 74.3845 168.73 72.5223 168.975 71.3819C169.22 70.2415 169.363 69.2791 169.404 68.4946C169.464 67.3409 169.3 66.4492 168.914 65.8195C168.527 65.1897 167.916 64.845 167.081 64.7853C165.968 64.7057 164.894 65.2079 163.86 66.2919C162.875 67.333 162.029 68.8242 161.323 70.7654L155.441 92.6466L145.419 91.9301L151.736 68.4125C151.843 68.1422 151.903 67.8687 151.918 67.5918C151.978 67.3182 152.017 67.0199 152.034 66.6969C152.082 65.774 151.934 65.0224 151.592 64.4421C151.249 63.8618 150.753 63.5484 150.104 63.502C148.897 63.4157 147.777 63.9146 146.743 64.9986C145.712 66.0365 144.842 67.5491 144.133 69.5364L138.251 91.4176L128.229 90.7011L137.398 56.6186L147.419 57.3351L146.467 60.8798C147.697 59.6245 149.024 58.7236 150.449 58.177C151.874 57.6305 153.445 57.4186 155.162 57.5413C157.204 57.6873 158.778 58.3093 159.885 59.4075C161.041 60.4628 161.754 61.9959 162.022 64.0067C163.424 62.1153 164.939 60.7414 166.566 59.8851C168.194 59.0289 170.005 58.672 172 58.8147C174.459 58.9905 176.327 59.7956 177.603 61.23C178.88 62.6645 179.452 64.6508 179.321 67.1888C179.266 68.2502 179.061 69.5093 178.706 70.9661C178.4 72.38 177.798 74.5602 176.901 77.5067C176.176 79.817 175.695 81.4501 175.46 82.4059C175.224 83.3617 175.089 84.1626 175.056 84.8087C175.006 85.7778 175.199 86.5327 175.637 87.0735C176.077 87.5681 176.761 87.8486 177.689 87.915C178.849 87.9979 179.867 87.677 180.743 86.9522C181.618 86.2274 182.654 84.6572 183.85 82.2416L186.773 82.4506C185.067 86.636 183.091 89.7139 180.847 91.684C178.649 93.6575 176.089 94.5397 173.166 94.3307C170.568 94.145 168.585 93.3085 167.219 91.8213C165.854 90.2879 165.234 88.3214 165.359 85.9218Z" fill="white"/>
<path d="M193.441 90.4409C194.592 90.6051 195.678 90.2703 196.698 89.4364C197.719 88.6025 198.623 87.309 199.412 85.5557L206.575 63.6991L216.521 65.1183L206.379 96.1351C208.766 95.6362 210.681 94.7433 212.122 93.4563C213.614 92.13 214.94 90.1502 216.099 87.5171L219 87.931C217.58 91.2733 215.771 93.8604 213.573 95.6924C211.421 97.5309 208.711 98.6601 205.444 99.0802L203.895 103.897C202.667 107.64 200.915 110.351 198.639 112.032C196.363 113.713 193.568 114.317 190.252 113.844C187.904 113.509 186.078 112.642 184.774 111.243C183.516 109.851 182.994 108.121 183.208 106.052C183.44 103.8 184.568 101.932 186.59 100.448C188.653 99.0166 191.632 97.9957 195.527 97.3853L196.74 93.7802C195.456 94.903 194.09 95.6877 192.642 96.1341C191.241 96.5871 189.711 96.6953 188.053 96.4588C185.751 96.1303 184.006 95.1583 182.818 93.5428C181.681 91.888 181.247 89.7505 181.518 87.1304C181.58 86.5328 181.694 85.8729 181.863 85.1506C182.035 84.3823 182.259 83.5746 182.533 82.7275L189.516 61.265L199.461 62.6841L192.067 85.4173C191.993 85.6865 191.916 85.9787 191.836 86.2939C191.762 86.5631 191.71 86.8356 191.682 87.1114C191.582 88.0767 191.665 88.8582 191.93 89.4558C192.247 90.0139 192.75 90.3423 193.441 90.4409ZM194.48 100.734C192.088 101.279 190.291 101.932 189.091 102.694C187.887 103.502 187.225 104.48 187.106 105.629C187.044 106.227 187.22 106.788 187.633 107.313C188.046 107.839 188.575 108.147 189.219 108.239C190.002 108.351 190.819 107.908 191.669 106.91C192.52 105.912 193.25 104.5 193.859 102.675L194.48 100.734Z" fill="white"/>
</g>
<defs>
<filter id="filter0_dd_154_3194" x="15" y="0" width="183" height="164" filterUnits="userSpaceOnUse" color-interpolation-filters="sRGB">
<feFlood flood-opacity="0" result="BackgroundImageFix"/>
<feColorMatrix in="SourceAlpha" type="matrix" values="0 0 0 0 0 0 0 0 0 0 0 0 0 0 0 0 0 0 127 0" result="hardAlpha"/>
<feOffset dx="-5" dy="4"/>
<feGaussianBlur stdDeviation="2"/>
<feComposite in2="hardAlpha" operator="out"/>
<feColorMatrix type="matrix" values="0 0 0 0 0.8 0 0 0 0 0.243137 0 0 0 0 0.376471 0 0 0 1 0"/>
<feBlend mode="normal" in2="BackgroundImageFix" result="effect1_dropShadow_154_3194"/>
<feColorMatrix in="SourceAlpha" type="matrix" values="0 0 0 0 0 0 0 0 0 0 0 0 0 0 0 0 0 0 127 0" result="hardAlpha"/>
<feOffset dy="4"/>
<feGaussianBlur stdDeviation="2"/>
<feComposite in2="hardAlpha" operator="out"/>
<feColorMatrix type="matrix" values="0 0 0 0 0.8 0 0 0 0 0.243137 0 0 0 0 0.376471 0 0 0 1 0"/>
<feBlend mode="normal" in2="effect1_dropShadow_154_3194" result="effect2_dropShadow_154_3194"/>
<feBlend mode="normal" in="SourceGraphic" in2="effect2_dropShadow_154_3194" result="shape"/>
</filter>
<filter id="filter1_d_154_3194" x="0" y="41" width="222" height="76" filterUnits="userSpaceOnUse" color-interpolation-filters="sRGB">
<feFlood flood-opacity="0" result="BackgroundImageFix"/>
<feColorMatrix in="SourceAlpha" type="matrix" values="0 0 0 0 0 0 0 0 0 0 0 0 0 0 0 0 0 0 127 0" result="hardAlpha"/>
<feOffset dx="3" dy="3"/>
<feComposite in2="hardAlpha" operator="out"/>
<feColorMatrix type="matrix" values="0 0 0 0 0.8 0 0 0 0 0.243137 0 0 0 0 0.376471 0 0 0 1 0"/>
<feBlend mode="normal" in2="BackgroundImageFix" result="effect1_dropShadow_154_3194"/>
<feBlend mode="normal" in="SourceGraphic" in2="effect1_dropShadow_154_3194" result="shape"/>
</filter>
</defs>
</svg>
