<svg width="222" height="76" viewBox="0 0 222 76" fill="none" xmlns="http://www.w3.org/2000/svg">
<g filter="url(#filter0_d_154_3191)">
<path d="M46.0331 0L35.7465 32.0427L33.3816 53.9295L22.3311 55.5063L24.696 33.6195L15.3951 8.70962C12.2033 10.3778 9.84732 12.673 8.32698 15.5953C6.84794 18.465 6.3007 21.7615 6.68527 25.4848C6.77548 26.3581 6.89986 27.11 7.05842 27.7404C7.26302 28.3642 7.53431 28.9552 7.8723 29.5133C7.98338 29.684 8.04366 29.8154 8.05316 29.9073C8.10395 29.9467 8.13172 29.9894 8.13647 30.0353C5.55801 30.4033 3.61562 30.144 2.30928 29.2576C1.04424 28.3187 0.293021 26.7001 0.0556322 24.4017C-0.181757 22.1034 0.340578 19.6967 1.62264 17.1816C2.95074 14.6599 4.90115 12.2826 7.47387 10.0498C9.66542 8.19783 12.0537 6.66763 14.6388 5.45918C17.2652 4.19819 19.8676 3.38373 22.4461 3.01581C22.7684 2.96982 23.1161 2.94353 23.4892 2.93694C23.9036 2.87781 24.4815 2.81867 25.2229 2.75951L33.7812 26.586L41.4748 0.650431L46.0331 0Z" fill="white"/>
<path d="M56.9741 46.0988C58.1793 45.9977 59.2146 45.401 60.08 44.3085C60.989 43.166 61.6846 41.5779 62.1667 39.544L65.5464 16.939L75.5584 16.0993L71.9804 40.0422C71.9128 40.4651 71.8671 40.863 71.8432 41.2359C71.8164 41.5626 71.8142 41.9105 71.8366 42.2795C71.8926 43.202 72.1418 43.8533 72.5842 44.2334C73.0701 44.5635 73.8229 44.6858 74.8427 44.6003C76.0478 44.4993 77.1049 43.8775 78.0138 42.735C78.9228 41.5925 79.6198 40.0274 80.1048 38.0397L83.0249 37.7948C81.7993 42.1626 80.0703 45.5295 77.8379 47.8956C75.6028 50.2155 72.9325 51.5057 69.8269 51.7661C67.8338 51.9333 66.2011 51.5139 64.9287 50.508C63.6536 49.456 62.8589 47.8769 62.5447 45.7707C61.3349 48.0974 59.9061 49.8861 58.2583 51.1369C56.6541 52.3377 54.7858 53.0275 52.6537 53.2063C50.3361 53.4007 48.4618 52.8393 47.0308 51.5222C45.6434 50.155 44.8699 48.157 44.7103 45.5279C44.6739 44.9283 44.6796 44.2556 44.7275 43.5099C44.7726 42.718 44.8613 41.8761 44.9935 40.9842L48.3732 18.3791L58.3851 17.5395L54.8071 41.4824C54.7368 41.8592 54.6883 42.211 54.6615 42.5377C54.6783 42.8144 54.6965 43.1143 54.7161 43.4371C54.7721 44.3596 54.9778 45.0609 55.333 45.5411C55.7318 45.9712 56.2789 46.1571 56.9741 46.0988Z" fill="white"/>
<path d="M114.396 42.414C114.389 41.5822 114.473 40.5415 114.647 39.2916C114.869 38.0412 115.293 36.0489 115.92 33.3148C116.548 30.673 116.949 28.7734 117.125 27.616C117.301 26.4586 117.385 25.4871 117.378 24.7016C117.368 23.5465 117.151 22.6711 116.727 22.0756C116.303 21.4801 115.672 21.1875 114.835 21.1978C113.719 21.2115 112.677 21.802 111.711 22.9692C110.791 24.0896 110.037 25.6469 109.45 27.6412L104.904 49.9477L94.8571 50.0714L99.7372 26.0972C99.8277 25.8188 99.8718 25.541 99.8693 25.2638C99.9134 24.986 99.9339 24.6853 99.9311 24.3619C99.9228 23.4378 99.7302 22.7008 99.3531 22.1509C98.9761 21.601 98.462 21.3301 97.8108 21.3381C96.6015 21.353 95.5136 21.944 94.5471 23.1112C93.5802 24.2321 92.8035 25.8129 92.2169 27.8534L87.6709 50.1598L77.6241 50.2835L84.7108 15.5382L94.7576 15.4145L94.0223 19.028C95.1731 17.6737 96.4434 16.6645 97.833 16.0005C99.2226 15.3364 100.778 14.9938 102.499 14.9726C104.545 14.9474 106.155 15.4359 107.327 16.4381C108.545 17.3936 109.348 18.8624 109.738 20.8447C111.023 18.8418 112.452 17.3454 114.024 16.3557C115.597 15.3659 117.384 14.8587 119.384 14.834C121.849 14.8037 123.762 15.4502 125.123 16.7735C126.483 18.0969 127.175 20.0292 127.198 22.5705C127.207 23.6333 127.079 24.9056 126.813 26.3877C126.593 27.8229 126.125 30.0468 125.407 33.0593C124.824 35.4233 124.443 37.0915 124.266 38.0642C124.088 39.0368 124.003 39.8465 124.008 40.4934C124.017 41.4637 124.256 42.2001 124.726 42.7027C125.195 43.159 125.895 43.3814 126.825 43.37C127.988 43.3557 128.984 42.9506 129.815 42.1548C130.645 41.359 131.584 39.707 132.631 37.1987L135.562 37.1626C134.111 41.4781 132.326 44.7117 130.205 46.8635C128.131 49.0147 125.629 50.1084 122.699 50.1445C120.094 50.1765 118.065 49.5084 116.61 48.1399C115.156 46.7253 114.418 44.8166 114.396 42.414Z" fill="white"/>
<path d="M165.359 44.9218C165.402 44.0911 165.548 43.0595 165.798 41.8268C166.095 40.5974 166.638 38.6446 167.429 35.9684C168.214 33.3845 168.73 31.5223 168.975 30.3819C169.22 29.2415 169.363 28.2791 169.404 27.4946C169.464 26.3409 169.3 25.4492 168.914 24.8195C168.527 24.1897 167.916 23.845 167.081 23.7853C165.968 23.7057 164.894 24.2079 163.86 25.2919C162.875 26.333 162.029 27.8242 161.323 29.7654L155.441 51.6466L145.419 50.9301L151.736 27.4125C151.843 27.1422 151.903 26.8687 151.918 26.5918C151.978 26.3182 152.017 26.0199 152.034 25.6969C152.082 24.774 151.934 24.0224 151.592 23.4421C151.249 22.8618 150.753 22.5484 150.104 22.502C148.897 22.4157 147.777 22.9146 146.743 23.9986C145.712 25.0365 144.842 26.5491 144.133 28.5364L138.251 50.4176L128.229 49.7011L137.398 15.6186L147.419 16.3351L146.467 19.8798C147.697 18.6245 149.024 17.7236 150.449 17.177C151.874 16.6305 153.445 16.4186 155.162 16.5413C157.204 16.6873 158.778 17.3093 159.885 18.4075C161.041 19.4628 161.754 20.9959 162.022 23.0067C163.424 21.1153 164.939 19.7414 166.566 18.8851C168.194 18.0289 170.005 17.672 172 17.8147C174.459 17.9905 176.327 18.7956 177.603 20.23C178.88 21.6645 179.452 23.6508 179.321 26.1888C179.266 27.2502 179.061 28.5093 178.706 29.9661C178.4 31.38 177.798 33.5602 176.901 36.5067C176.176 38.817 175.695 40.4501 175.46 41.4059C175.224 42.3617 175.089 43.1626 175.056 43.8087C175.006 44.7778 175.199 45.5327 175.637 46.0735C176.077 46.5681 176.761 46.8486 177.689 46.915C178.849 46.9979 179.867 46.677 180.743 45.9522C181.618 45.2274 182.654 43.6572 183.85 41.2416L186.773 41.4506C185.067 45.636 183.091 48.7139 180.847 50.684C178.649 52.6575 176.089 53.5397 173.166 53.3307C170.568 53.145 168.585 52.3085 167.219 50.8213C165.854 49.2879 165.234 47.3214 165.359 44.9218Z" fill="white"/>
<path d="M193.441 49.4409C194.592 49.6051 195.678 49.2703 196.698 48.4364C197.719 47.6025 198.623 46.309 199.412 44.5557L206.575 22.6991L216.521 24.1183L206.379 55.1351C208.766 54.6362 210.681 53.7433 212.122 52.4563C213.614 51.13 214.94 49.1502 216.099 46.5171L219 46.931C217.58 50.2733 215.771 52.8604 213.573 54.6924C211.421 56.5309 208.711 57.6601 205.444 58.0802L203.895 62.8967C202.667 66.6396 200.915 69.3515 198.639 71.0324C196.363 72.7133 193.568 73.3172 190.252 72.8442C187.904 72.5091 186.078 71.6422 184.774 70.2434C183.516 68.8512 182.994 67.1208 183.208 65.0523C183.44 62.8 184.568 60.9319 186.59 59.4479C188.653 58.0166 191.632 56.9957 195.527 56.3853L196.74 52.7802C195.456 53.903 194.09 54.6877 192.642 55.1341C191.241 55.5871 189.711 55.6953 188.053 55.4588C185.751 55.1303 184.006 54.1583 182.818 52.5428C181.681 50.888 181.247 48.7505 181.518 46.1304C181.58 45.5328 181.694 44.8729 181.863 44.1506C182.035 43.3823 182.259 42.5746 182.533 41.7275L189.516 20.265L199.461 21.6841L192.067 44.4173C191.993 44.6865 191.916 44.9787 191.836 45.2939C191.762 45.5631 191.71 45.8356 191.682 46.1114C191.582 47.0767 191.665 47.8582 191.93 48.4558C192.247 49.0139 192.75 49.3423 193.441 49.4409ZM194.48 59.7342C192.088 60.279 190.291 60.9323 189.091 61.6939C187.887 62.5015 187.225 63.4799 187.106 64.6291C187.044 65.2266 187.22 65.7881 187.633 66.3134C188.046 66.8388 188.575 67.1475 189.219 67.2395C190.002 67.3512 190.819 66.908 191.669 65.9099C192.52 64.9118 193.25 63.5 193.859 61.6746L194.48 59.7342Z" fill="white"/>
</g>
<defs>
<filter id="filter0_d_154_3191" x="0" y="0" width="222" height="76" filterUnits="userSpaceOnUse" color-interpolation-filters="sRGB">
<feFlood flood-opacity="0" result="BackgroundImageFix"/>
<feColorMatrix in="SourceAlpha" type="matrix" values="0 0 0 0 0 0 0 0 0 0 0 0 0 0 0 0 0 0 127 0" result="hardAlpha"/>
<feOffset dx="3" dy="3"/>
<feComposite in2="hardAlpha" operator="out"/>
<feColorMatrix type="matrix" values="0 0 0 0 0.8 0 0 0 0 0.243137 0 0 0 0 0.376471 0 0 0 1 0"/>
<feBlend mode="normal" in2="BackgroundImageFix" result="effect1_dropShadow_154_3191"/>
<feBlend mode="normal" in="SourceGraphic" in2="effect1_dropShadow_154_3191" result="shape"/>
</filter>
</defs>
</svg>
