<svg width="20" height="20" viewBox="0 0 20 20" fill="none" xmlns="http://www.w3.org/2000/svg">
<path fill-rule="evenodd" clip-rule="evenodd" d="M19.11 9.97155C19.11 9.28019 19.048 8.61542 18.9327 7.97723H9.75V11.7487H14.9973C14.7712 12.9675 14.0843 14.0001 13.0517 14.6914V17.1378H16.2027C18.0464 15.4404 19.11 12.9409 19.11 9.97155Z" fill="#4285F4"/>
<path fill-rule="evenodd" clip-rule="evenodd" d="M9.75006 19.4999C12.3826 19.4999 14.5896 18.6268 16.2028 17.1377L13.0518 14.6913C12.1787 15.2763 11.0619 15.622 9.75006 15.622C7.21063 15.622 5.0612 13.9069 4.2945 11.6024H1.03711V14.1285C2.64143 17.315 5.9387 19.4999 9.75006 19.4999Z" fill="#34A853"/>
<path fill-rule="evenodd" clip-rule="evenodd" d="M4.29443 11.6026C4.09943 11.0176 3.98864 10.3927 3.98864 9.7501C3.98864 9.10748 4.09943 8.4826 4.29443 7.8976V5.37146H1.03705C0.376705 6.68771 0 8.1768 0 9.7501C0 11.3234 0.376705 12.8125 1.03705 14.1287L4.29443 11.6026Z" fill="#FBBC05"/>
<path fill-rule="evenodd" clip-rule="evenodd" d="M9.75006 3.87784C11.1815 3.87784 12.4668 4.36977 13.4772 5.33591L16.2737 2.53943C14.5852 0.966136 12.3781 0 9.75006 0C5.9387 0 2.64143 2.18489 1.03711 5.37136L4.2945 7.8975C5.0612 5.59295 7.21063 3.87784 9.75006 3.87784Z" fill="#EA4335"/>
</svg>
